<svg width="70" height="70" viewBox="0 0 70 70" fill="none" xmlns="http://www.w3.org/2000/svg">
<path d="M55.4167 5.83334H26.25C23.0329 5.83334 20.4167 8.44959 20.4167 11.6667V29.1667H14.5833C11.3663 29.1667 8.75 31.7829 8.75 35V61.25C8.75 62.0236 9.05729 62.7654 9.60427 63.3124C10.1513 63.8594 10.8931 64.1667 11.6667 64.1667H58.3333C59.1069 64.1667 59.8488 63.8594 60.3957 63.3124C60.9427 62.7654 61.25 62.0236 61.25 61.25V11.6667C61.25 8.44959 58.6338 5.83334 55.4167 5.83334ZM14.5833 35H32.0833V58.3333H14.5833V35ZM55.4167 58.3333H37.9167V35C37.9167 31.7829 35.3004 29.1667 32.0833 29.1667H26.25V11.6667H55.4167V58.3333Z" fill="white"/>
<path d="M32.0833 17.5H37.9167V23.3333H32.0833V17.5ZM43.75 17.5H49.5833V23.3333H43.75V17.5ZM43.75 29.2571H49.5833V35H43.75V29.2571ZM43.75 40.8333H49.5833V46.6667H43.75V40.8333ZM20.4167 40.8363H26.25V46.6696H20.4167V40.8363Z" fill="white"/>
</svg>
