<svg width="90" height="90" viewBox="0 0 90 90" fill="none" xmlns="http://www.w3.org/2000/svg">
<path d="M78.45 8.92499C74.24 7.98213 69.9393 7.50426 65.625 7.49999C61.5506 7.2413 57.4652 7.79061 53.6038 9.11635C49.7424 10.4421 46.1812 12.5181 43.125 15.225C39.1 19.25 35.1125 23.2625 31.1625 27.2625C26.625 26.775 15.8625 26.5125 8.66249 33.7875C7.96405 34.4901 7.57202 35.4405 7.57202 36.4312C7.57202 37.4219 7.96405 38.3724 8.66249 39.075L51.0375 81.525C51.7401 82.2234 52.6905 82.6155 53.6812 82.6155C54.6719 82.6155 55.6224 82.2234 56.325 81.525C63.6375 74.025 63.4125 63.45 62.9625 59.025L75 47.025C86.9625 35.0625 81.525 12.6 81.3 11.6625C81.1269 10.9861 80.7684 10.3715 80.2648 9.88787C79.7613 9.40423 79.1328 9.07075 78.45 8.92499ZM69.6 41.7375L56.25 55.0125C55.8177 55.4491 55.4992 55.9852 55.3227 56.5737C55.1461 57.1622 55.1169 57.785 55.2375 58.3875C56.0476 63.4043 55.3425 68.5487 53.2125 73.1625L16.95 36.825C21.6369 34.6679 26.8763 34.013 31.95 34.95C32.5503 35.0282 33.1606 34.9598 33.7287 34.7509C34.2968 34.5419 34.8059 34.1985 35.2125 33.75C35.2125 33.75 40.4625 28.3125 48.375 20.4C53.2403 16.4929 59.4003 14.5646 65.625 15C68.5529 15.0145 71.4749 15.2653 74.3625 15.75C75.2625 21.1125 76.6875 34.65 69.6 41.7375Z" fill="white"/>
<path d="M58.9875 38.625C63.1296 38.625 66.4875 35.2671 66.4875 31.125C66.4875 26.9829 63.1296 23.625 58.9875 23.625C54.8454 23.625 51.4875 26.9829 51.4875 31.125C51.4875 35.2671 54.8454 38.625 58.9875 38.625Z" fill="white"/>
<path d="M18.75 60C11.25 63.75 11.25 78.75 11.25 78.75C18.1915 78.552 24.8368 75.8938 30 71.25L18.75 60Z" fill="white"/>
</svg>
