<svg width="310" height="253" viewBox="0 0 310 253" fill="none" xmlns="http://www.w3.org/2000/svg">
<g clip-path="url(#clip0_90_164)">
<path d="M90.8649 238.417C92.048 239.543 93.5007 240.345 95.0829 240.745C96.6651 241.145 98.3235 241.13 99.8983 240.702C103.935 239.554 106.674 235.906 109.105 232.48L116.299 222.35L110.237 223.463C105.876 224.264 101.408 225.105 97.6111 227.397C93.8139 229.689 90.7726 233.78 91.0131 238.214" fill="#E6E6E6"/>
<path d="M85.2294 252.064C86.2927 248.432 87.3621 244.75 89.2394 241.44C90.9068 238.501 93.1849 235.921 96.1904 234.318C97.7846 233.469 99.5144 232.905 101.302 232.652C101.768 232.586 101.844 233.313 101.38 233.379C98.2852 233.822 95.4106 235.238 93.1709 237.423C90.6881 239.857 89.0596 242.994 87.8556 246.223C87.1265 248.176 86.5383 250.176 85.9529 252.176C85.9356 252.27 85.8828 252.355 85.8053 252.412C85.7279 252.468 85.6317 252.493 85.5365 252.482C85.441 252.466 85.3554 252.414 85.2982 252.336C85.241 252.258 85.2169 252.16 85.2312 252.064L85.2294 252.064Z" fill="#F2F2F2"/>
<path d="M202.307 105.785C202.998 105.618 203.717 105.605 204.414 105.746C205.111 105.888 205.768 106.181 206.339 106.605C206.91 107.028 207.382 107.572 207.721 108.198C208.06 108.824 208.257 109.517 208.3 110.228L224.933 114.912L218.146 120.801L203.391 115.45C202.195 115.442 201.042 114.995 200.153 114.194C199.263 113.392 198.698 112.291 198.564 111.1C198.43 109.908 198.738 108.709 199.428 107.73C200.117 106.75 201.142 106.058 202.307 105.785Z" fill="#FFB7B7"/>
<path d="M245.05 247.671L240.202 247.671L237.895 228.936L245.051 228.937L245.05 247.671Z" fill="#FFB7B7"/>
<path d="M246.287 252.379L230.654 252.379V252.181C230.654 250.564 231.295 249.014 232.436 247.87C233.577 246.727 235.125 246.085 236.738 246.085L246.287 246.085L246.287 252.379Z" fill="#2F2E41"/>
<path d="M273.461 247.671L268.612 247.671L266.305 228.936L273.461 228.937L273.461 247.671Z" fill="#FFB7B7"/>
<path d="M274.697 252.379L259.064 252.379V252.181C259.064 250.564 259.705 249.014 260.846 247.87C261.987 246.727 263.535 246.085 265.149 246.085L274.697 246.085L274.697 252.379Z" fill="#2F2E41"/>
<path d="M241.089 140.142L233.947 189.701L235.726 241.916L246.451 242.772L249.805 195.945L258.342 169.834L263.361 207.055L263.567 241.916L274.641 242.772L278.503 169.48L275.662 137.606L241.089 140.142Z" fill="#2F2E41"/>
<path d="M261.746 73.79C267.985 73.79 273.044 68.7224 273.044 62.4713C273.044 56.2201 267.985 51.1526 261.746 51.1526C255.506 51.1526 250.447 56.2201 250.447 62.4713C250.447 68.7224 255.506 73.79 261.746 73.79Z" fill="#FFB7B7"/>
<path d="M254.782 79.9465L242.308 142.898C242.308 142.898 263.309 148.936 272.508 143.362C281.708 137.787 277.586 120.58 277.586 120.58L275.901 91.2992L272.787 83.8947L270.145 77.7825L254.782 79.9465Z" fill="#CBCBCB"/>
<path d="M251.131 124.631L255.439 78.7244L251.993 81.2446L239.945 85.1646L239.121 117.484L230.693 159.986C230.693 159.986 236.717 171.762 244.183 152.279L251.131 124.631Z" fill="#2F2E41"/>
<path d="M245.744 89.9985L239.946 85.1646L226.914 113.525L212.372 110.333L211.685 118.937L232.754 127.291L247.112 107.266L245.744 89.9985Z" fill="#2F2E41"/>
<path d="M268.301 114.583L269.925 77.2209L275.901 81.8572L286.573 84.8374L285.008 114.583L287.261 160.737L276.071 164.288L272.93 135.164L268.301 114.583Z" fill="#2F2E41"/>
<path d="M269.019 144.658C269.144 143.957 269.421 143.292 269.83 142.71C270.24 142.128 270.772 141.643 271.389 141.289C272.005 140.935 272.692 140.721 273.401 140.662C274.109 140.603 274.822 140.7 275.488 140.946L286.454 127.57L289.11 136.162L278.289 147.548C277.801 148.642 276.93 149.52 275.839 150.014C274.749 150.508 273.516 150.584 272.373 150.228C271.23 149.872 270.258 149.108 269.639 148.082C269.021 147.055 268.8 145.837 269.019 144.658Z" fill="#FFB7B7"/>
<path d="M279.428 88.9847L286.573 84.8374L304.553 120.407L287.024 144.793L277.025 136.785L289.166 120.924L278.101 103.888L279.428 88.9847Z" fill="#2F2E41"/>
<path d="M272.372 53.4225L272.92 52.3181L270.163 50.9463C270.163 50.9463 267.123 45.9903 261.621 47.383C256.12 48.7758 253.644 49.6093 253.644 49.6093L250.895 50.995L252.275 52.3703L249.8 53.2039L251.453 54.027L249.529 55.1349L250.565 60.8143C250.565 60.8143 252.285 56.5067 255.593 58.1528C258.9 59.799 264.949 57.3019 264.949 57.3019L270.205 67.4916C270.205 67.4916 271.289 63.9196 273.223 64.8721C273.223 64.8721 278.161 56.9927 272.372 53.4225Z" fill="#2F2E41"/>
<path d="M203.742 70.0283H203.67L162.236 87.7528L105.546 112.004C105.324 112.097 105.086 112.146 104.846 112.147C104.606 112.148 104.368 112.102 104.145 112.011L45.6572 87.7022L3.20505 70.0572L3.14021 70.0283H3.06794C2.39811 70.0291 1.75593 70.296 1.28229 70.7705C0.808651 71.245 0.542235 71.8883 0.541489 72.5594V182.479C0.542236 183.15 0.808651 183.793 1.28229 184.268C1.75593 184.742 2.39811 185.009 3.06794 185.01H203.742C204.412 185.009 205.055 184.742 205.528 184.268C206.002 183.793 206.268 183.15 206.269 182.479V72.5594C206.268 71.8883 206.002 71.245 205.528 70.7705C205.055 70.296 204.412 70.0291 203.742 70.0283Z" fill="white"/>
<path d="M203.923 70.7515C203.849 70.7516 203.777 70.729 203.717 70.6867L103.899 1.0457C103.596 0.834748 103.235 0.722013 102.865 0.722644C102.495 0.723275 102.135 0.83724 101.832 1.04923L2.73375 70.686C2.65537 70.7409 2.55842 70.7625 2.46421 70.7458C2.37 70.7292 2.28623 70.6758 2.2313 70.5973C2.17637 70.5189 2.15477 70.4218 2.17124 70.3274C2.18772 70.233 2.24092 70.149 2.31916 70.0938L101.417 0.457097C101.842 0.160368 102.347 0.000855339 102.864 3.43021e-06C103.381 -0.000848479 103.887 0.157 104.312 0.45233L204.129 70.0932C204.192 70.1372 204.24 70.2002 204.264 70.2731C204.289 70.346 204.29 70.4249 204.267 70.4983C204.244 70.5717 204.198 70.6359 204.136 70.6814C204.074 70.727 203.999 70.7516 203.923 70.7515Z" fill="#3F3D56"/>
<path d="M8.39639 73.2203L102.963 3.00806L198.248 78.2161L107.835 131.91L58.7497 120.701L8.39639 73.2203Z" fill="#E6E6E6"/>
<path d="M62.8933 165.075H16.1749C15.8881 165.076 15.6038 165.02 15.3385 164.91C15.0732 164.801 14.832 164.641 14.6287 164.438C14.4254 164.235 14.264 163.994 14.1538 163.729C14.0435 163.463 13.9865 163.179 13.9861 162.891C13.9857 162.604 14.0418 162.319 14.1513 162.054C14.2608 161.788 14.4215 161.547 14.6242 161.343C14.8269 161.14 15.0676 160.979 15.3326 160.868C15.5976 160.758 15.8816 160.702 16.1685 160.702H62.8933C63.1802 160.701 63.4644 160.757 63.7297 160.866C63.995 160.975 64.2362 161.136 64.4395 161.339C64.6428 161.542 64.8042 161.782 64.9145 162.048C65.0247 162.313 65.0817 162.598 65.0821 162.885C65.0825 163.172 65.0264 163.457 64.9169 163.723C64.8074 163.988 64.6467 164.23 64.444 164.433C64.2414 164.637 64.0006 164.798 63.7356 164.908C63.4706 165.018 63.1866 165.075 62.8997 165.075H62.8933Z" fill="#2FA1EA"/>
<path d="M32.9364 155.674H16.1749C15.888 155.675 15.6038 155.619 15.3385 155.509C15.0732 155.4 14.832 155.239 14.6287 155.037C14.4254 154.834 14.264 154.593 14.1537 154.328C14.0435 154.062 13.9865 153.778 13.9861 153.49C13.9856 153.203 14.0418 152.918 14.1513 152.653C14.2607 152.387 14.4214 152.146 14.6241 151.942C14.8268 151.739 15.0676 151.577 15.3325 151.467C15.5975 151.357 15.8816 151.301 16.1685 151.301H32.9364C33.5148 151.3 34.0695 151.53 34.4788 151.94C34.8881 152.349 35.1185 152.904 35.1193 153.484C35.1202 154.063 34.8915 154.619 34.4834 155.03C34.0753 155.441 33.5212 155.672 32.9429 155.674H32.9364Z" fill="#2FA1EA"/>
<path d="M104.293 112.327C103.938 112.328 103.586 112.259 103.258 112.124L44.9353 87.8808V11.9952C44.9361 11.3241 45.2025 10.6808 45.6761 10.2063C46.1498 9.73182 46.7919 9.4649 47.4618 9.46411H159.349C160.019 9.4649 160.661 9.73182 161.134 10.2063C161.608 10.6808 161.874 11.3241 161.875 11.9952V87.9338L161.766 87.9807L105.36 112.112C105.022 112.254 104.659 112.328 104.293 112.327Z" fill="#2FA1EA"/>
<path d="M203.201 70.0283H203.129L161.695 87.7528L105.004 112.004C104.783 112.097 104.545 112.146 104.305 112.147C104.064 112.148 103.826 112.102 103.604 112.011L45.1157 87.7022L2.66362 70.0572L2.59877 70.0283H2.52646C1.85663 70.0291 1.21446 70.296 0.740817 70.7705C0.267178 71.245 0.000760199 71.8883 1.52588e-05 72.5594V182.479C0.000760201 183.15 0.267178 183.793 0.740817 184.268C1.21446 184.742 1.85663 185.009 2.52646 185.01H203.201C203.871 185.009 204.513 184.742 204.987 184.268C205.46 183.793 205.727 183.15 205.728 182.479V72.5594C205.727 71.8883 205.46 71.245 204.987 70.7705C204.513 70.296 203.871 70.0291 203.201 70.0283ZM205.006 182.479C205.006 182.958 204.815 183.418 204.477 183.757C204.139 184.096 203.68 184.286 203.201 184.287H2.52646C2.0479 184.286 1.589 184.096 1.2506 183.757C0.91221 183.418 0.722014 182.958 0.721824 182.479V72.5594C0.722478 72.0918 0.903499 71.6427 1.22704 71.3057C1.55058 70.9688 1.9916 70.7702 2.4579 70.7515L45.1157 88.4832L103.326 112.68C103.956 112.937 104.662 112.933 105.289 112.669L161.695 88.5375L203.273 70.7515C203.739 70.7716 204.179 70.9708 204.501 71.3075C204.824 71.6442 205.005 72.0926 205.006 72.5594L205.006 182.479Z" fill="#3F3D56"/>
<path d="M95.2133 37.8304H55.5115C54.7466 37.8291 54.0135 37.5237 53.4731 36.9814C52.9326 36.4391 52.6291 35.7041 52.6291 34.9378C52.6291 34.1715 52.9326 33.4365 53.4731 32.8942C54.0135 32.3519 54.7466 32.0465 55.5115 32.0452H95.2133C95.9782 32.0465 96.7113 32.3519 97.2518 32.8942C97.7922 33.4365 98.0957 34.1715 98.0957 34.9378C98.0957 35.7041 97.7922 36.4391 97.2518 36.9814C96.7113 37.5237 95.9782 37.8291 95.2133 37.8304Z" fill="white"/>
<path d="M74.6405 25.5367H55.5115C54.7457 25.5367 54.0113 25.2319 53.4698 24.6895C52.9283 24.147 52.6241 23.4113 52.6241 22.6441C52.6241 21.8769 52.9283 21.1412 53.4698 20.5987C54.0113 20.0562 54.7457 19.7515 55.5115 19.7515H74.6405C75.4063 19.7515 76.1407 20.0562 76.6822 20.5987C77.2237 21.1412 77.5279 21.8769 77.5279 22.6441C77.5279 23.4113 77.2237 24.147 76.6822 24.6895C76.1407 25.2319 75.4063 25.5367 74.6405 25.5367Z" fill="white"/>
<path d="M133.099 66.7567H72.4636C71.6978 66.7567 70.9634 66.4519 70.4219 65.9094C69.8804 65.367 69.5762 64.6312 69.5762 63.864C69.5762 63.0969 69.8804 62.3611 70.4219 61.8187C70.9634 61.2762 71.6978 60.9714 72.4636 60.9714H133.099C133.865 60.9714 134.599 61.2762 135.141 61.8187C135.682 62.3611 135.987 63.0969 135.987 63.864C135.987 64.6312 135.682 65.367 135.141 65.9094C134.599 66.4519 133.865 66.7567 133.099 66.7567Z" fill="white"/>
<path d="M133.099 80.1349H72.4636C72.084 80.1355 71.708 80.0612 71.3571 79.9161C71.0062 79.771 70.6873 79.5581 70.4187 79.2894C70.15 79.0207 69.9369 78.7016 69.7914 78.3504C69.646 77.9991 69.5712 77.6225 69.5712 77.2422C69.5712 76.8619 69.646 76.4854 69.7914 76.1341C69.9369 75.7828 70.15 75.4637 70.4187 75.1951C70.6873 74.9264 71.0062 74.7134 71.3571 74.5684C71.708 74.4233 72.084 74.3489 72.4636 74.3496H133.099C133.479 74.3489 133.855 74.4233 134.206 74.5684C134.557 74.7134 134.875 74.9264 135.144 75.1951C135.413 75.4637 135.626 75.7828 135.771 76.1341C135.917 76.4854 135.992 76.8619 135.992 77.2422C135.992 77.6225 135.917 77.9991 135.771 78.3504C135.626 78.7016 135.413 79.0207 135.144 79.2894C134.875 79.5581 134.557 79.771 134.206 79.9161C133.855 80.0612 133.479 80.1355 133.099 80.1349Z" fill="white"/>
<path d="M309.56 252.837H193.72C193.603 252.837 193.491 252.79 193.408 252.707C193.326 252.625 193.279 252.512 193.279 252.395C193.279 252.278 193.326 252.166 193.408 252.083C193.491 252.001 193.603 251.954 193.72 251.954H309.56C309.676 251.954 309.788 252.001 309.871 252.083C309.954 252.166 310 252.278 310 252.395C310 252.512 309.954 252.625 309.871 252.707C309.788 252.79 309.676 252.837 309.56 252.837Z" fill="#CBCBCB"/>
<path d="M107.391 252.837H64.6664C64.5496 252.837 64.4376 252.79 64.355 252.707C64.2724 252.625 64.226 252.512 64.226 252.395C64.226 252.278 64.2724 252.166 64.355 252.083C64.4376 252.001 64.5496 251.954 64.6664 251.954H107.391C107.507 251.954 107.619 252.001 107.702 252.083C107.785 252.166 107.831 252.278 107.831 252.395C107.831 252.512 107.785 252.625 107.702 252.707C107.619 252.79 107.507 252.837 107.391 252.837Z" fill="#CBCBCB"/>
<path d="M80.376 239.194C82.0074 239.156 83.6017 238.699 85.0052 237.865C86.4088 237.031 87.5743 235.849 88.3895 234.432C90.4434 230.767 89.8178 226.245 89.1302 222.099L87.1001 209.833L83.5853 214.906C81.0573 218.554 78.4812 222.307 77.4021 226.614C76.323 230.922 77.0465 235.971 80.3382 238.945" fill="#E6E6E6"/>
<path d="M85.9864 252.851C84.1837 249.525 82.3504 246.159 81.3514 242.486C80.4644 239.224 80.2641 235.785 81.2663 232.525C81.7992 230.797 82.6288 229.175 83.718 227.733C84.0021 227.357 84.5676 227.819 84.2851 228.193C82.4025 230.694 81.3612 233.728 81.3113 236.86C81.2639 240.34 82.3176 243.715 83.7369 246.855C84.5943 248.754 85.5852 250.588 86.578 252.42C86.6322 252.499 86.6542 252.596 86.6393 252.691C86.6244 252.786 86.5739 252.872 86.498 252.931C86.4195 252.987 86.322 253.011 86.2264 252.996C86.1309 252.981 86.0452 252.928 85.9878 252.85L85.9864 252.851Z" fill="#F2F2F2"/>
</g>
<defs>
<clipPath id="clip0_90_164">
<rect width="310" height="253" fill="white"/>
</clipPath>
</defs>
</svg>
