<svg width="70" height="70" viewBox="0 0 70 70" fill="none" xmlns="http://www.w3.org/2000/svg">
<path d="M40.1917 53.3458C40.1917 53.6958 40.6292 53.3458 40.1917 53.3458V53.3458ZM30.4208 45.4708C29.5167 43.7208 31.5583 45.9666 30.4208 45.4708V45.4708ZM15.75 46.2875C15.75 45.9375 16.1875 47.0458 15.75 46.2875V46.2875ZM32.0833 47.425C31.2958 46.2 31.5 47.6 32.0833 48.3583C33.4833 49.7291 32.6083 47.6 32.0833 47.425Z" fill="white"/>
<path d="M59.0333 55.5916C57.4875 57.4291 56.1167 55.3875 54.2792 55.9708C51.0708 55.9708 54.5417 54.5125 54.4542 53.0541C52.7625 51.7416 50.8375 54.8333 49.7292 55.6791C47.039 55.2146 44.421 54.4008 41.9417 53.2583C39.054 51.9099 36.4732 49.9842 34.3583 47.5999C31.992 45.2416 30.1356 42.4222 28.9042 39.3166C27.33 33.8734 26.5057 28.2409 26.4542 22.5749C26.6583 18.7833 30.6542 22.9833 32.2875 21.6124C31.675 19.6583 28.525 19.0458 26.775 18.2291C25.0833 18.2291 24.4708 16.6249 22.6917 16.5083C22.6917 14.3791 19.3958 15.5458 18.1417 14.0583C19.3667 10.9083 14.1458 14.0583 14.5542 11.4041C16.2458 7.90411 9.3625 8.48745 12.2208 11.5791C14.9917 13.1541 9.50834 14.2916 11.1125 15.3416C11.2481 15.6051 11.3134 15.8992 11.302 16.1954C11.2906 16.4915 11.2029 16.7797 11.0475 17.032C10.892 17.2843 10.6739 17.4922 10.4145 17.6355C10.1551 17.7788 9.86303 17.8527 9.56667 17.8499C7.40834 18.0541 7.6125 21.0291 9.74167 19.4541C12.1042 18.7249 10.15 19.7749 9.0125 19.9791C8.41223 20.0704 7.84265 20.3045 7.35168 20.6618C6.86072 21.019 6.46273 21.4889 6.19119 22.032C5.91965 22.5751 5.78251 23.1754 5.79129 23.7825C5.80008 24.3897 5.95453 24.9858 6.24167 25.5208C7.3811 28.7946 8.35456 32.1238 9.15834 35.4958C10.9586 40.6073 13.6223 45.3722 17.0333 49.5833C18.827 51.8344 20.9511 53.8012 23.3333 55.4166C25.5207 56.9234 27.9058 58.1208 30.4208 58.9749C34.9042 60.2956 39.5438 61.0116 44.2167 61.1041C47.0512 61.1199 49.8816 60.8856 52.675 60.4041C55.2125 60.6666 57.0208 58.5083 59.2667 59.6458C60.6667 58.4208 62.65 58.9749 64.0208 58.0708C64.9542 54.5124 60.4625 57.2833 59.0333 55.5916ZM53.9583 53.4333C53.3167 53.4333 54.1042 52.4416 53.9583 53.4333V53.4333ZM31.7042 21.3499C31.4125 21.3499 31.4708 20.9999 31.2375 20.9124C28.9042 19.8333 32.375 20.2416 31.7042 21.4666V21.3499ZM51.4208 54.5708C50.4 54.3374 52.2375 53.8416 51.4208 54.5708V54.5708ZM43.225 54.8916C42.5542 54.8916 43.75 54.4833 43.225 54.8916V54.8916ZM37.7417 51.4499C37.3625 51.4499 37.7417 51.0708 37.7417 51.4499V51.4499ZM37.1 50.9541C36.05 50.9541 36.8375 50.2833 37.1 50.9541V50.9541ZM35.875 49.9041C34.9125 50.1375 35.875 48.9124 35.875 49.9041V49.9041ZM18.375 15.8958C16.8292 15.0791 18.6958 16.8583 17.3833 16.8291C16.6833 16.8291 15.3708 15.3124 15.8083 14.5541C16.6833 15.0208 18.2292 15.1666 18.4917 16.0124L18.375 15.8958ZM15.6917 13.5333H15.3708C15.2833 12.7458 17.9083 13.3583 15.8083 13.6499L15.6917 13.5333ZM12.7167 11.2291C11.4917 10.6749 12.7167 8.51661 14 9.53745C15.4875 11.6666 11.2292 9.30411 12.7167 11.2291ZM14.1458 13.2416C13.3583 13.5624 14.6125 12.6291 14.1458 13.2416V13.2416ZM15.5458 15.9249C17.2958 17.2666 14.5542 15.9249 13.4458 16.7708C11.6667 16.9458 15.3708 15.7791 15.5458 15.9249ZM16.0417 17.6749C17.0625 17.6749 21.525 15.6624 20.0375 17.4708C21.4083 19.0749 20.3292 18.5499 19.425 17.4708C20.2417 18.0249 19.6 20.3874 18.3458 18.7833C17.0917 17.1791 16.8875 18.2583 17.85 19.3958C16.9167 17.4999 14.2333 18.3166 12.2792 18.9583C11.025 18.8416 15.575 17.8791 16.0417 17.6749ZM10.4417 21.9041C9.975 23.0708 11.1417 23.4499 12.25 23.6541C14.0583 23.1583 11.0542 22.8374 12.425 22.3708C13.1833 22.3708 10.0333 21.6124 12.6583 21.2624C15.2833 20.9124 17.7625 19.7458 20.4167 19.1916C22.6657 18.6971 24.9716 18.5107 27.2708 18.6374C28.1458 19.6583 26.6 21.3791 25.025 21.5541C23.1324 22.1628 21.1743 22.5447 19.1917 22.6916C16.8583 22.3999 15.1958 24.4708 12.8042 24.7333C13.4458 23.5666 12.2792 24.3249 11.0833 24.2666C11.6958 26.6583 6.79584 23.6541 9.68334 23.0708C7.525 22.3124 7.49584 24.5874 7.72917 25.9874C5.83334 23.3333 7.93334 22.2249 10.4417 21.9041ZM15.925 25.0541C15.2833 24.9083 16.4208 24.4708 15.925 25.0541V25.0541ZM13.825 27.6208C13.825 27.6208 12.8333 27.3874 13.2417 27.1249C16.1583 27.5041 10.6167 26.1624 13.6208 26.4833C15.5458 26.4249 14.9042 27.5333 13.825 27.6208ZM14.7875 28.1166C14.4375 28.4666 14.7875 27.4166 14.7875 28.1166V28.1166ZM12.7167 28.1166C11.4333 27.8541 13.3292 27.4749 12.7167 28.1166V28.1166ZM12.5417 32.2874C12.25 32.0541 12.3375 32.5791 12.5417 32.2874V32.2874ZM11.6667 31.7916C10.0625 31.2374 11.6667 31.1791 11.6667 31.7916V31.7916ZM11.3167 35.5249C10.5583 35.2624 10.5875 34.0666 10.2375 33.4249C9.12917 30.4208 11.4333 34.5916 11.2 35.5249H11.3167ZM11.9875 31.1791C9.97501 30.9458 11.8417 29.7499 11.9875 31.1791V31.1791ZM11.9875 30.1874H11.725C9.50834 29.1666 13.0375 29.6916 11.6667 30.1874H11.9875ZM11.6667 27.8833C9.8875 26.9791 13.3583 26.8333 11.6667 27.8833V27.8833ZM12.2792 28.6416C11.2875 28.8166 12.425 27.7083 12.2792 28.6416V28.6416ZM8.48751 28.8458C8.13751 29.0791 8.48751 28.1749 8.48751 28.8458V28.8458ZM8.75001 28.4374C8.28334 28.4374 8.75001 27.6499 8.75001 28.4374V28.4374ZM8.98334 25.5208C7.81667 25.2291 9.94584 24.7916 8.98334 25.5208V25.5208ZM9.74167 31.3541C8.45834 31.0624 9.39167 29.4583 9.74167 31.3541V31.3541ZM10.6167 34.9999C11.8417 36.4874 11.375 37.3041 12.6292 39.1124C10.9958 38.0916 10.675 35.6124 9.7125 34.0083C8.51667 31.3833 10.3833 33.9791 10.6167 34.9999ZM22.5458 53.6083C21.5542 53.4041 20.8833 52.3541 20.1833 51.6833C18.1923 50.226 16.6143 48.2761 15.6042 46.0249C13.925 43.8808 12.4963 41.5518 11.3458 39.0833C10.15 36.3999 12.075 39.2874 12.3667 40.3083C12.9792 42.2916 14.9333 43.4291 15.1083 44.7416C17.2667 45.9666 16.1583 48.0083 18.025 48.5624C18.8125 48.1541 18.9 51.0125 20.6208 50.4291C19.6583 50.8666 21 51.3916 21.4958 52.2083C22.5167 52.0624 24.9083 54.5999 22.5458 53.7249V53.6083ZM13.475 34.9999C12.5708 34.7958 14.4375 34.6791 13.475 34.9999V34.9999ZM14.0583 36.3708C12.4542 35.9624 15.575 35.7874 14.0583 36.3708V36.3708ZM18.1125 37.7416C19.2792 37.2458 18.5792 40.0166 19.7167 40.3666C21.9333 43.2833 18.1708 40.3666 16.8 40.1624C16.975 40.1624 15.6917 39.8124 16.2458 39.6958C15.8375 39.2583 14.9333 37.7708 17.0042 38.7624C18.7542 39.4624 18.9 38.9374 18.1125 37.6249V37.7416ZM21.9333 42.8749C21.9333 43.3124 19.8333 43.2541 21.7583 44.0999C20.65 44.0999 20.3 44.0999 21.7583 44.9749C21.1167 45.4708 23.0125 45.8791 22.3708 46.6374C24.2958 48.1541 22.0208 47.0166 21.2042 46.4041C20.3875 45.7916 18.725 45.3833 19.0167 44.9458C21.3792 46.1708 19.6292 44.9458 18.5792 44.0708C20.475 44.5374 17.0917 42.6708 18.8708 43.1666C19.425 43.3125 18.0833 42.0583 19.8333 42.9624C18.2583 41.4458 21.2042 42.6124 21.9333 42.7583V42.8749ZM23.3333 42.3791C21.5542 41.9708 23.3333 41.3874 23.3333 42.3791V42.3791ZM22.8375 48.2125C21.0583 47.4541 23.975 48.2125 22.8375 48.2125V48.2125ZM21.525 47.7166C19.4542 47.0458 23.0417 47.7166 21.525 47.7166V47.7166ZM21.2625 48.0374C20.6208 48.0374 21.2625 47.5416 21.2625 48.0374V48.0374ZM18.1125 43.5166C16.0125 42.6416 17.5292 42.5541 18.1125 43.5166V43.5166ZM16.5375 42.4958C14.8458 41.5333 16.3042 41.5333 16.5375 42.4958V42.4958ZM16.5375 44.3916C14.875 43.1083 16.3333 43.6624 16.5375 44.3916V44.3916ZM16.1 40.4833C15.0792 40.4833 16.4792 39.8999 16.1 40.4833V40.4833ZM23.3333 50.6916C21.8458 50.2541 23.3333 50.2833 23.3333 50.6916V50.6916ZM22.2542 49.5833H21.7875C19.8042 48.0083 22.6917 48.4749 23.975 49.1749C26.8042 49.5833 23.3333 50.3125 22.2542 49.5833ZM30.1292 54.3958C28.1458 53.9291 30.5958 53.6083 30.1292 54.3958V54.3958ZM29.6333 52.8791C29.3417 52.5583 29.4875 52.8791 29.6333 52.8791V52.8791ZM27.125 48.9708C25.4042 48.5625 27.7375 48.4166 28.175 48.9708C31.15 49.5833 28 49.7291 27.125 48.9708ZM27.7375 52.5H27.4167L27.0375 52.325C25.4042 50.6041 30.5083 53.1416 27.7375 52.5ZM26.9208 54.5125C26.4833 54.6875 26.9208 54.1041 26.9208 54.5125V54.5125ZM27.7667 51.0416L27.3 50.8958C25.375 49.5833 29.75 51.1583 27.7667 50.8958V51.0416ZM28.2333 56.0583C27.0667 55.5916 28.9917 55.3291 28.2333 56.0583V56.0583ZM28.525 53.8999C26.8333 53.4916 29.575 53.5208 28.525 53.8999V53.8999ZM28.9042 52.1208C27.6208 51.9458 29.05 51.5083 28.9042 52.1208V52.1208ZM26.8042 49.5541C28.1458 49.7291 28.175 50.3416 26.8042 49.9624C26.5417 49.9624 26.1042 49.9624 25.9875 49.4666C23.7708 48.0083 26.075 48.7374 26.8042 49.4083V49.5541ZM26.6292 55.3874C26.0458 55.7374 26.6292 54.7458 26.6292 55.3874V55.3874ZM25.725 53.8999C24.1792 53.8999 26.8917 53.1416 25.725 53.8999V53.8999ZM25.375 54.9208C24.6167 54.6291 25.8708 54.6874 25.375 54.9208V54.9208ZM26.25 52.325C24.7333 51.9166 26.9792 51.7999 26.25 52.325V52.325ZM25.7833 50.6625C24.9667 50.6625 25.6083 50.1958 25.7833 50.6625V50.6625ZM24.2083 47.8916C22.5458 46.5499 27.65 49 24.2083 47.8916V47.8916ZM24.0333 48.4458C23.7125 48.1833 24.0333 48.6208 24.0333 48.4458V48.4458ZM34.6792 59.4708C32.084 59.0077 29.5693 58.1727 27.2125 56.9916L26.25 56.4083C24.5875 55.5041 24.7917 55.2999 26.425 56.2041C26.9792 56.6708 31.0625 58.3333 29.1375 57.225C28.2917 57.0208 23.5958 54.4541 26.6875 55.5624C29.2636 56.9283 31.9344 58.1077 34.6792 59.0916C36.9992 59.6421 39.3965 59.7901 41.7667 59.5291C43.6625 60.4916 45.6458 59.2958 47.6 60.1416C43.2672 60.6637 38.8768 60.4368 34.6208 59.4708H34.6792ZM31.0333 57.4291C29.5458 57.1666 31.5 56.7583 31.0333 57.4291V57.4291ZM33.1625 54.5125C31.4708 54.1916 34.9125 53.8416 33.1625 54.5125V54.5125ZM35.6125 58.3333C38.5292 59.4124 33.8625 58.6833 32.9 58.0708C30.2167 56.9624 35 58.3333 35.6125 58.3333ZM32.5208 55.1249C30.1583 54.7749 35.1458 55.1249 32.5208 55.1249V55.1249ZM36.9542 57.6041C36.1083 58.2749 36.9542 56.7291 36.9542 57.6041V57.6041ZM37.8 57.7499C37.3625 57.9249 37.8 57.2541 37.8 57.7499V57.7499ZM38.5875 56.6416C38.1208 57.2249 38.5875 55.9708 38.5875 56.6416V56.6416ZM39.4917 56.6416C38.1792 57.1374 40.8625 55.5041 39.4917 56.6416V56.6416ZM39.9 56.6416C41.3292 55.4166 41.3875 55.9999 41.3583 57.0208C40.1042 58.4208 40.8625 56.4375 40.075 57.1958C39.2875 57.9541 39.5208 56.9041 39.9 56.7V56.6416ZM42.3208 57.9541C40.8625 57.9541 43.8083 56.3791 42.3208 57.9541V57.9541ZM42.3208 58.4791C41.7375 58.6249 42.3208 58.0999 42.3208 58.4791V58.4791ZM41.8542 57.4583C40.7167 56.7 44.5958 55.6791 41.8542 57.4583V57.4583ZM43.5167 57.7208H43.2833C43.1958 57.0499 44.8583 56.9333 43.5167 57.7791V57.7208ZM43.9542 58.2749C43.0792 58.0416 45.325 57.1083 43.9542 58.2749V58.2749ZM45.0042 57.9833C43.5167 58.5083 46.4042 56.8166 45.0042 57.9833V57.9833ZM45.6458 58.3041L45.2958 58.5374C44.625 58.1291 47.3667 57.1374 45.6458 58.3333V58.3041ZM44.3917 56.7583C42.8167 56.2333 40.3083 54.5416 38.5583 55.6791C36.225 57.1666 39.7542 54.0458 37.8583 55.4458C35.9333 57.75 36.5458 53.9874 34.6792 55.1249C34.6792 54.7749 33.0167 54.6583 34.1833 54.0458C33.1333 54.0458 33.8042 53.9 34.1833 53.0541C33.7167 53.0541 31.2667 53.0541 30.2167 52.2083C29.05 50.6916 30.4208 51.3333 31.6167 51.5374C29.6625 51.8874 32.3167 52.9958 33.6 52.3833C33.0167 52.1208 32.3458 50.8666 30.6833 49.7583C28.6753 48.6575 26.6005 47.6834 24.4708 46.8416C22.0208 45.3833 24.9958 46.3166 25.8417 47.0749C28.2917 48.1541 27.3292 45.5874 25.8417 44.9166C24.2667 44.9166 23.8875 43.1958 22.6333 43.2833C24.5875 43.6041 25.9583 42.7874 23.7708 40.8041C21.5833 38.8208 24.6458 42.6416 23.45 42.0874C22.8958 41.3583 23.3042 40.3374 21.5542 39.9583C21.5542 40.6291 21.3208 41.6499 20.9417 40.2499C20.4458 40.2499 19.8917 40.8624 19.4833 39.4333C19.8625 37.7708 17.85 37.3916 17.5292 36.3416C19.2792 37.4499 20.0667 36.5749 18.8417 35.3791C17.6167 34.1833 17.8792 35.0583 17.4125 35.3791C15.6917 37.1291 17.2375 32.4624 16.4792 33.7458C15.7208 33.7458 16.1583 34.5916 16.1875 35.6416C13.6792 35.0291 16.7708 36.9541 17.5 38.0041C16.3625 36.8374 16.5667 38.9083 15.6042 38.0041C15.2833 37.1291 15.2542 35.7583 13.65 35.5249C15.4583 34.8833 12.6 33.6291 12.8333 33.5708C13.8542 32.6374 14 31.3541 15.225 33.3666C13.6792 33.3666 15.225 35.9333 15.575 35.1166C15.575 33.7458 16.2167 32.1999 13.8542 31.6458C13.1542 32.5791 11.9583 29.8083 13.3292 30.3916C13.1542 28.5541 15.4875 29.6333 15.3417 28.8458C16.5667 28.3208 13.8833 26.5999 15.3417 25.9291C16.45 26.6291 19.3083 24.8791 17.3833 24.6458C18.6083 24.6458 19.5708 25.1708 19.6875 23.9458C20.65 24.1499 23.3042 24.9958 20.9125 23.6833C21.9622 23.2564 23.0765 23.0099 24.2083 22.9541C26.5125 21.1749 26.0458 25.8708 25.5208 27.1833C26.3958 26.5708 26.2208 29.9249 25.9292 31.1791C26.3958 30.5374 26.6 32.2291 25.9292 33.4249C25.9292 33.2208 27.0958 33.0458 26.2792 34.4458C25.6375 33.0749 25.375 37.3624 25.7833 35.3791C26.8625 33.5999 26.6 35.3791 26.9208 36.0791C27.1542 37.6833 27.8542 39.1708 28.0875 40.6291C29.1083 41.6499 27.65 40.9499 27.65 42.3499C27.9708 41.9416 29.3417 42.9041 29.3125 44.3333C29.3125 42.0583 29.575 43.8083 30.6833 44.3333C31.4292 45.8601 32.4138 47.2582 33.6 48.475C34.6792 49.7291 33.6 48.8541 34.0083 49.6124C34.7281 50.6059 35.6373 51.4472 36.6834 52.0879C37.7296 52.7286 38.8921 53.1561 40.1042 53.3458C40.5533 54.1267 41.2386 54.7451 42.0614 55.112C42.8843 55.4788 43.8022 55.5753 44.6833 55.3874C42.9333 56.4666 49.5833 56.7583 47.3375 57.3416C46.6667 57.8083 45.5292 56.7583 44.3917 56.8166V56.7583ZM25.375 46.3458C24.675 46.3458 25.375 45.7625 25.375 46.3458V46.3458ZM26.4833 46.9874C25.9583 46.9874 26.1333 46.2874 26.4833 46.9874V46.9874ZM18.8708 36.3416C18.1708 36.1374 19.1625 36.0791 18.8708 36.3416V36.3416ZM17.15 36.3416C16.3917 36.3416 17.15 35.3499 17.15 36.3416V36.3416ZM16.275 36.1083C15.9833 36.2541 16.275 35.7874 16.275 36.1083V36.1083ZM48.3583 60.1708C47.2208 59.9666 49.2917 59.5291 48.3583 60.1708V60.1708ZM50.4875 57.1083H49.6125C49.7875 55.7958 53.4917 56.8166 55.0083 56.8458C54.5417 57.8374 51.7125 56.9625 50.4875 57.225V57.1083ZM56.3208 57.1083C55.5333 57.1083 56.6708 56.1749 56.3208 57.1083V57.1083ZM59.2375 56.8458C58.5083 57.2249 59.2375 55.9708 59.2375 56.8458V56.8458ZM60.6375 57.1666C59.1208 56.8166 61.3375 56.8166 61.8042 56.7583C64.5458 56.8166 61.8042 57.225 60.4333 57.225L60.6375 57.1666Z" fill="white"/>
<path d="M18.9875 20.7375C21.9042 20.1541 17.8792 19.775 16.975 20.7375C17.5 21.1166 18.1708 20.125 18.9875 20.7375ZM16.5958 21.1166C16.5958 21.6708 17.1208 20.475 16.5958 21.1166V21.1166ZM24.2375 19.7166C26.1917 19.3958 24.5583 18.5208 23.975 20.0083C24.1792 20.4166 24.2958 19.8625 24.2375 19.7166ZM22.4292 20.0083C22.2833 17.0916 25.1417 21.0583 22.4292 20.0083V20.0083ZM13.9125 22.7208C14.2575 22.7033 14.5978 22.8064 14.875 23.0125C17.0625 24.5291 14.5833 20.5625 13.9125 22.7208Z" fill="white"/>
<path d="M14.0292 21.6709C14.4958 22.05 14.875 21.0584 14.0292 21.6709V21.6709ZM15.1083 21.7L15.5167 22.05C17.5 22.225 15.1958 20.7084 15.1083 21.7ZM31.1792 46.6667C31.1792 45.5292 31.4417 47.5417 31.1792 46.6667V46.6667ZM17.2375 32.0834C17.5292 32.6084 17.7625 31.5584 17.2375 32.0834V32.0834ZM17.5 33.8625C17.5 32.375 18.0542 34.8542 17.5 33.8625V33.8625ZM18.1125 32.4334C17.2958 30.9167 19.075 33.0459 18.1125 32.4334V32.4334ZM16.9167 30.0417C17.1208 30.4792 17.6167 30.5084 17.9958 30.625C21.8458 32.4042 15.225 27.7084 16.9167 30.0417ZM18.4917 34.2125C19.0167 33.1334 19.3958 35.7584 18.4917 34.2125V34.2125ZM19.8917 33.7459C20.9708 36.4292 19.2208 33.3959 19.0167 32.4917C19.0417 33.5168 19.3224 34.5194 19.8333 35.4084C20.825 36.8959 20.3875 34.5917 21.4375 36.0792C20.8542 34.7667 21.7292 35.4959 21.6125 34.9125C21.4958 34.3292 18.6958 31.5 19.8917 33.7459ZM20.9417 38.9375C21.2042 39.8417 21.4667 38.9375 20.9417 38.9375V38.9375ZM17.0625 26.25C17.2375 26.6584 17.3833 26.25 17.0625 26.25V26.25ZM19.0167 27.475C19.5125 26.425 19.95 28.6709 19.0167 27.475V27.475ZM16.4208 30.8L16.8292 31.2375C19.7167 32.0834 13.7667 28.4667 16.4208 30.8ZM18.4625 29.7209C21.3792 30.9167 18.2 28.9334 17.1792 29.1375C17.5 29.5167 18.1125 29.3417 18.4625 29.7209ZM17.9375 28.4375C18.4625 28.9625 20.3292 29.925 18.8417 28.6125C19.775 28.4375 18.8417 28.1459 18.1417 27.6792C16.8583 25.725 18.3458 27.8542 17.9375 28.4375Z" fill="white"/>
<path d="M16.0708 31.0334C14.525 29.75 16.5375 31.6459 15.8958 31.6167C14.2917 30.45 14.9625 31.2959 15.8958 32.2C16.8583 33.6584 17.6458 31.325 16.0708 31.0334ZM22.3125 32.9C22.1375 30.9167 22.6625 33.2209 22.3125 32.9V32.9ZM25.2875 22.6917C25.2875 23.0417 25.4917 22.4 25.2875 22.6917V22.6917ZM26.25 36.3709C26.25 35.8459 26.25 36.9834 26.25 36.3709V36.3709ZM25.4042 32.8125C25.6375 34.1542 25.6958 30.5375 25.4042 32.8125V32.8125ZM25.8125 33.4542V33.7459C26.425 32.2584 25.9292 31.4417 25.8125 33.4542ZM25.5208 25.5792C25.1125 27.6209 24.7333 26.775 25.2875 25.2584C25.1417 23.3042 23.975 26.4542 24.5 27.3584C25.3458 28.7292 26.25 23.975 25.5208 25.5792ZM28.4667 43.0209C28.7875 41.7959 28.8458 44.0417 28.4667 43.0209V43.0209ZM24.5292 30.5375C24.5292 30.1292 24.5292 31.1209 24.5292 30.5375V30.5375ZM26.3958 35.4959C26.3958 36.2542 26.7167 34.3875 26.3958 35.4959V35.4959ZM27.7083 40.8334L27.9125 41.1542C28.3208 39.725 26.8625 38.85 27.7083 40.8334ZM23.1583 39.3167C22.7792 38.6459 23.9458 39.9584 23.1583 39.3167V39.3167ZM26.7458 36.8375C26.7458 35.6125 26.9792 37.6834 26.7458 36.8375V36.8375ZM23.7417 28.6125C23.5958 27.825 24.1792 29.575 23.7417 28.6125V28.6125Z" fill="white"/>
<path d="M24.2083 29.8375C23.45 27.9708 24.9083 30.8291 24.2083 29.8375V29.8375ZM24.0333 33.1917C23.6542 30.275 22.8083 34.5041 24.0333 35.2042C24.4125 36.1958 24.7625 35.7875 24.9083 34.65C23.975 34.65 25.1417 32.8417 24.0333 33.1917Z" fill="white"/>
</svg>
