<svg width="70" height="70" viewBox="0 0 70 70" fill="none" xmlns="http://www.w3.org/2000/svg">
<path d="M63.0583 32.3983L37.5929 6.93873C36.8867 6.23573 35.9308 5.84106 34.9344 5.84106C33.9379 5.84106 32.982 6.23573 32.2758 6.93873L26.9996 12.2208L33.705 18.9291C34.4961 18.6618 35.3464 18.6216 36.1592 18.8129C36.9721 19.0042 37.7151 19.4196 38.3039 20.0117C38.8927 20.6039 39.3038 21.3492 39.4905 22.1631C39.6773 22.9771 39.6322 23.827 39.3604 24.6166L45.8179 31.0829C46.774 30.7474 47.8157 30.7473 48.7719 31.0825C49.728 31.4177 50.5416 32.0683 51.0789 32.9274C51.6161 33.7864 51.8451 34.8027 51.7281 35.8091C51.6111 36.8155 51.155 37.7521 50.435 38.465C48.6879 40.215 45.8675 40.215 44.1175 38.465C43.4959 37.8427 43.0712 37.0512 42.8964 36.1892C42.7216 35.3271 42.8045 34.4327 43.1346 33.6175L37.0854 27.6004V43.4583C37.5113 43.6654 37.9196 43.9512 38.2725 44.3041C39.1064 45.1439 39.5744 46.2794 39.5744 47.4629C39.5744 48.6464 39.1064 49.7819 38.2725 50.6216C37.8564 51.0384 37.3622 51.3691 36.8182 51.5947C36.2742 51.8203 35.691 51.9364 35.1021 51.9364C34.5132 51.9364 33.93 51.8203 33.386 51.5947C32.842 51.3691 32.3478 51.0384 31.9317 50.6216C31.5165 50.2076 31.1871 49.7158 30.9623 49.1742C30.7375 48.6327 30.6218 48.0521 30.6218 47.4658C30.6218 46.8795 30.7375 46.2989 30.9623 45.7574C31.1871 45.2158 31.5165 44.724 31.9317 44.31C32.375 43.8725 32.8708 43.54 33.4017 43.3212V27.3087C32.8563 27.0855 32.3606 26.7563 31.9433 26.3403C31.5259 25.9244 31.1951 25.4298 30.97 24.8852C30.7449 24.3406 30.6299 23.7568 30.6318 23.1675C30.6337 22.5783 30.7523 21.9952 30.9808 21.4521L24.3892 14.8283L6.92709 32.2758C5.46875 33.7458 5.46875 36.1258 6.92709 37.5958L32.3925 63.0554C32.7409 63.4047 33.1548 63.6818 33.6105 63.8709C34.0662 64.06 34.5548 64.1574 35.0481 64.1574C35.5415 64.1574 36.03 64.06 36.4857 63.8709C36.9414 63.6818 37.3553 63.4047 37.7038 63.0554L63.0496 37.7125C63.4006 37.365 63.6794 36.9515 63.87 36.4958C64.0605 36.0401 64.159 35.5512 64.1599 35.0572C64.1607 34.5633 64.0638 34.0741 63.8747 33.6177C63.6857 33.1614 63.4082 32.747 63.0583 32.3983Z" fill="#F85916"/>
</svg>
