<svg width="70" height="70" viewBox="0 0 70 70" fill="none" xmlns="http://www.w3.org/2000/svg">
<path d="M8.75 8.75H61.25V61.25H8.75V8.75ZM56.9479 48.7288C56.5658 46.3342 55.0054 44.3217 50.3796 42.4433C48.7696 41.6879 46.9817 41.1658 46.445 39.9525C46.2467 39.2292 46.2175 38.8383 46.3458 38.4096C46.6754 36.9979 48.3496 36.575 49.6621 36.9658C50.5167 37.2283 51.3042 37.8846 51.7971 38.9375C54.0575 37.4588 54.0575 37.4587 55.6354 36.4758C55.0433 35.56 54.7487 35.1604 54.355 34.7667C52.9754 33.2267 51.1379 32.4392 48.1542 32.5063L46.6142 32.7017C45.1354 33.0633 43.7238 33.8538 42.8721 34.9008C40.3783 37.7242 41.0988 42.6446 44.1175 44.6833C47.1013 46.9146 51.4704 47.4046 52.0275 49.5046C52.5525 52.0654 50.1258 52.885 47.7254 52.5904C45.955 52.1938 44.9692 51.31 43.8871 49.6679L39.8854 51.9663C40.3433 53.0133 40.8683 53.4742 41.6558 54.3929C45.4621 58.2313 54.9792 58.0358 56.6854 52.1938C56.7467 51.9983 57.2104 50.6538 56.8487 48.5858L56.9479 48.7288ZM37.2983 32.8796H32.3808C32.3808 37.1175 32.3604 41.3321 32.3604 45.5788C32.3604 48.2738 32.4975 50.7471 32.0571 51.5083C31.3367 53.0163 29.4729 52.8237 28.63 52.5554C27.7638 52.1296 27.3233 51.5375 26.8129 50.6858C26.6758 50.4583 26.5737 50.26 26.5358 50.26L22.5458 52.7217C23.2138 54.1013 24.1879 55.2854 25.445 56.0379C27.3146 57.155 29.8258 57.5167 32.4567 56.9275C34.1717 56.4317 35.6504 55.4137 36.4175 53.8387C37.5375 51.8058 37.2983 49.3092 37.2896 46.5208C37.3129 42.0262 37.2896 37.5287 37.2896 33.0021L37.2983 32.8796Z" fill="#FFEB3C"/>
</svg>
