<svg width="70" height="70" viewBox="0 0 70 70" fill="none" xmlns="http://www.w3.org/2000/svg">
<path d="M35 64.123C34.1979 64.123 33.4484 63.9071 32.7484 63.5338L25.6346 59.3105C24.57 58.7184 25.1038 58.5025 25.4246 58.3946C26.8713 57.9134 27.1396 57.8084 28.6359 56.9567C28.7992 56.8488 29.0121 56.8984 29.1754 57.0063L34.6296 60.273C34.8454 60.378 35.1138 60.378 35.2742 60.273L56.6213 47.915C56.8371 47.81 56.9421 47.5942 56.9421 47.3259V22.6567C56.9421 22.3913 56.8371 22.1755 56.6213 22.0705L35.2742 9.76504C35.0613 9.65712 34.7929 9.65712 34.6296 9.76504L13.2767 22.0675C13.0638 22.1725 12.9559 22.4438 12.9559 22.6538V47.32C12.9559 47.533 13.0638 47.8042 13.2767 47.9092L19.11 51.2838C22.2659 52.8821 24.2492 51.0067 24.2492 49.14V24.7975C24.2492 24.4767 24.5146 24.153 24.8909 24.153H27.6209C27.9359 24.153 28.2625 24.4213 28.2625 24.7975V49.143C28.2625 53.3692 25.9642 55.8338 21.9509 55.8338C20.72 55.8338 19.7575 55.8338 17.0275 54.4921L11.4129 51.2867C10.7289 50.889 10.1611 50.3188 9.76651 49.6329C9.37189 48.9471 9.1642 48.1696 9.16418 47.3784V22.7092C9.16418 21.105 10.0188 19.6059 11.4129 18.8038L32.7513 6.44587C33.444 6.07541 34.2174 5.88159 35.0029 5.88159C35.7885 5.88159 36.5619 6.07541 37.2546 6.44587L58.5959 18.8038C59.9929 19.603 60.8446 21.105 60.8446 22.7092V47.3784C60.8446 48.9796 59.99 50.4788 58.5959 51.2867L37.2546 63.6417C36.5517 63.9625 35.7496 64.123 35 64.123ZM41.58 47.1596C32.2175 47.1596 30.2925 42.878 30.2925 39.2438C30.2925 38.923 30.5609 38.5992 30.9342 38.5992H33.7167C34.0375 38.5992 34.3029 38.8121 34.3029 39.1359C34.7317 41.968 35.9596 43.3621 41.6354 43.3621C46.1271 43.3621 48.0579 42.3413 48.0579 39.935C48.0579 38.5438 47.5184 37.5288 40.5125 36.8346C34.6821 36.2513 31.045 34.9592 31.045 30.3071C31.045 25.9759 34.6821 23.4063 40.7838 23.4063C47.6292 23.4063 51.0009 25.7659 51.4267 30.8963C51.4216 31.0694 51.3647 31.2371 51.2634 31.3775C51.1554 31.4825 50.9979 31.5905 50.8375 31.5905H48.0579C47.9205 31.5875 47.788 31.5389 47.6813 31.4523C47.5746 31.3657 47.4999 31.246 47.4688 31.1121C46.8242 28.1605 45.1675 27.2038 40.7838 27.2038C35.8575 27.2038 35.2684 28.9159 35.2684 30.1992C35.2684 31.748 35.9596 32.2292 42.6009 33.0867C49.1809 33.9413 52.2842 35.1721 52.2842 39.7775C52.2259 44.488 48.3788 47.1596 41.58 47.1596Z" fill="#08B14C"/>
</svg>
