<svg width="70" height="70" viewBox="0 0 70 70" fill="none" xmlns="http://www.w3.org/2000/svg">
<path d="M56.1167 8.75H13.8833C12.5219 8.75 11.2162 9.29083 10.2535 10.2535C9.29083 11.2162 8.75 12.5219 8.75 13.8833V56.1167C8.75 57.4781 9.29083 58.7838 10.2535 59.7465C11.2162 60.7092 12.5219 61.25 13.8833 61.25H56.1167C56.7908 61.25 57.4583 61.1172 58.0811 60.8592C58.7039 60.6013 59.2698 60.2232 59.7465 59.7465C60.2232 59.2698 60.6013 58.7039 60.8592 58.0811C61.1172 57.4583 61.25 56.7908 61.25 56.1167V13.8833C61.25 13.2092 61.1172 12.5417 60.8592 11.9189C60.6013 11.2961 60.2232 10.7302 59.7465 10.2535C59.2698 9.77684 58.7039 9.39873 58.0811 9.14075C57.4583 8.88278 56.7908 8.75 56.1167 8.75ZM39.2 37.9167H32.6375V56.7H27.4167V37.9167H20.8542V33.6583H39.2V37.9167ZM56.1167 53.3167C55.6944 54.2145 55.0141 54.9659 54.1625 55.475C53.2666 56.0264 52.2785 56.4118 51.2458 56.6125C50.0945 56.8503 48.9215 56.9676 47.7458 56.9625C46.5429 56.9615 45.3424 56.8541 44.1583 56.6417C43.1519 56.4356 42.1731 56.1125 41.2417 55.6792V50.6917L41.0667 50.5167H41.2417V50.7208C42.1189 51.4053 43.1049 51.9377 44.1583 52.2958C45.2103 52.6964 46.3286 52.8943 47.4542 52.8792C48.0423 52.8894 48.6297 52.8307 49.2042 52.7042C49.6357 52.6032 50.0489 52.4359 50.4292 52.2083C50.7269 52.0269 50.9769 51.7769 51.1583 51.4792C51.3379 51.1401 51.4169 50.7569 51.3859 50.3745C51.3549 49.9921 51.2152 49.6265 50.9833 49.3208C50.7091 48.9364 50.3623 48.6095 49.9625 48.3583C49.477 48.017 48.9592 47.7239 48.4167 47.4833L46.4625 46.6667C44.9156 46.0296 43.545 45.0291 42.4667 43.75C41.5643 42.6622 41.0875 41.2837 41.125 39.8708C41.091 38.7975 41.332 37.7332 41.825 36.7792C42.2955 35.9476 42.9549 35.2382 43.75 34.7083C44.6359 34.119 45.6256 33.7033 46.6667 33.4833C47.8048 33.2214 48.9697 33.0941 50.1375 33.1042C51.2009 33.0893 52.2639 33.1576 53.3167 33.3083C54.1926 33.4453 55.0525 33.67 55.8833 33.9792V38.7917C55.4994 38.518 55.089 38.2835 54.6583 38.0917C54.1946 37.8921 53.7169 37.7263 53.2292 37.5958C52.7617 37.459 52.2837 37.3614 51.8 37.3042C51.3538 37.2621 50.9046 37.2621 50.4583 37.3042C49.9088 37.2951 49.3602 37.3539 48.825 37.4792C48.386 37.5712 47.9632 37.7285 47.5708 37.9458C47.2646 38.1263 47.0048 38.376 46.8125 38.675C46.6379 38.9655 46.5471 39.2986 46.55 39.6375C46.5429 39.9993 46.6445 40.3549 46.8417 40.6583C47.0812 40.9896 47.3775 41.276 47.7167 41.5042C48.1279 41.8315 48.5787 42.1059 49.0583 42.3208L50.8958 43.1375C51.7407 43.4868 52.5595 43.8962 53.3458 44.3625C54.0373 44.7409 54.6668 45.2229 55.2125 45.7917C55.7472 46.3098 56.1649 46.9363 56.4375 47.6292C56.7172 48.4254 56.8554 49.2645 56.8458 50.1083C56.825 51.1977 56.5766 52.2706 56.1167 53.2583V53.3167Z" fill="#1949C6"/>
</svg>
