<svg width="32" height="32" viewBox="0 0 32 32" fill="none" xmlns="http://www.w3.org/2000/svg">
<path fill-rule="evenodd" clip-rule="evenodd" d="M24.5373 7.51067C23.4285 6.39451 22.1092 5.50949 20.6558 4.90687C19.2025 4.30424 17.644 3.996 16.0707 4C9.47333 4 4.10267 9.36933 4.1 15.9693C4.1 18.0787 4.65067 20.1373 5.69733 21.9533L4 28.1547L10.3453 26.4893C12.1005 27.4448 14.0669 27.9458 16.0653 27.9467H16.0707C22.6667 27.9467 28.0373 22.5773 28.04 15.9773C28.0445 14.4046 27.7373 12.8467 27.1361 11.3934C26.5349 9.94017 25.6516 8.6205 24.5373 7.51067ZM16.0707 25.9267H16.0667C14.2847 25.9269 12.5355 25.4474 11.0027 24.5387L10.64 24.3227L6.87467 25.3107L7.87867 21.64L7.64267 21.264C6.64638 19.6779 6.11898 17.8424 6.12133 15.9693C6.124 10.484 10.5867 6.02133 16.0747 6.02133C17.3817 6.01843 18.6763 6.27478 19.8835 6.77554C21.0908 7.27629 22.1868 8.01152 23.108 8.93867C24.0342 9.86139 24.7683 10.9585 25.2679 12.1667C25.7674 13.3748 26.0226 14.67 26.0187 15.9773C26.016 21.4627 21.5533 25.9267 16.0707 25.9267ZM21.528 18.4747C21.228 18.324 19.7587 17.6013 19.484 17.5013C19.2107 17.4013 19.012 17.352 18.812 17.6507C18.612 17.9493 18.0387 18.6227 17.864 18.8227C17.6893 19.0227 17.5147 19.0467 17.216 18.8973C16.9173 18.748 15.9533 18.432 14.8107 17.4133C13.9213 16.62 13.3213 15.6413 13.1467 15.3413C12.972 15.0413 13.128 14.88 13.2787 14.7307C13.4133 14.5973 13.5773 14.3813 13.7267 14.2067C13.876 14.032 13.9253 13.908 14.0253 13.708C14.1253 13.508 14.076 13.3333 14 13.184C13.9253 13.0333 13.3267 11.5613 13.0773 10.9627C12.836 10.3827 12.5893 10.46 12.4053 10.452C12.2148 10.4442 12.0241 10.4406 11.8333 10.4413C11.6817 10.4452 11.5324 10.4804 11.395 10.5446C11.2576 10.6088 11.1349 10.7008 11.0347 10.8147C10.76 11.1147 9.988 11.8373 9.988 13.3093C9.988 14.7813 11.06 16.204 11.2093 16.404C11.3587 16.604 13.3187 19.624 16.3187 20.92C17.0333 21.228 17.5907 21.412 18.024 21.5507C18.74 21.7787 19.392 21.7453 19.908 21.6693C20.4827 21.584 21.6773 20.9467 21.9267 20.248C22.176 19.5493 22.176 18.9507 22.1013 18.8253C22.0267 18.7 21.8253 18.624 21.528 18.4747Z" fill="black"/>
</svg>
